<svg width="30" height="34" viewBox="0 0 30 34" fill="none" xmlns="http://www.w3.org/2000/svg">
    <path d="M27.5 2.85938L25 0.359375L22.5 2.85938L20 0.359375L17.5 2.85938L15 0.359375L12.5 2.85938L10 0.359375L7.5 2.85938L5 0.359375V23.6406H0V28.6406C0 29.5781 0.208333 30.4375 0.625 31.2188C1.09375 31.9479 1.69271 32.5469 2.42188 33.0156C3.20312 33.4323 4.0625 33.6406 5 33.6406H25C25.9375 33.6406 26.7708 33.4323 27.5 33.0156C28.2812 32.5469 28.8802 31.9479 29.2969 31.2188C29.7656 30.4375 30 29.5781 30 28.6406V0.359375L27.5 2.85938ZM26.6406 28.6406C26.6406 29.1094 26.4844 29.526 26.1719 29.8906C25.8594 30.2031 25.4688 30.3594 25 30.3594C24.5312 30.3594 24.1406 30.2031 23.8281 29.8906C23.5156 29.526 23.3594 29.1094 23.3594 28.6406V23.6406H8.35938V5.35938H26.6406V28.6406ZM10 8.64062H20V12H10V8.64062ZM21.6406 8.64062H25V12H21.6406V8.64062ZM10 13.6406H20V17H10V13.6406ZM21.6406 13.6406H25V17H21.6406V13.6406Z"
          fill="#ff9e8d"/>
</svg>
