<svg width="28" height="30" viewBox="0 0 28 30" fill="none" xmlns="http://www.w3.org/2000/svg">
    <path d="M17.3594 15V11.6406H10.6406V15H17.3594ZM17.3594 21.6406V18.3594H10.6406V21.6406H17.3594ZM27.3594 8.35938V11.6406H23.8438C23.9479 12.3698 24 12.9427 24 13.3594V15H27.3594V18.3594H24V20C24 20.3646 23.9479 20.9115 23.8438 21.6406H27.3594V25H22.6719C21.7865 26.5104 20.5625 27.7344 19 28.6719C17.4896 29.5573 15.8229 30 14 30C12.1771 30 10.4844 29.5573 8.92188 28.6719C7.41146 27.7344 6.21354 26.5104 5.32812 25H0.640625V21.6406H4.15625C4.05208 20.9115 4 20.3646 4 20V18.3594H0.640625V15H4V13.3594C4 12.9427 4.05208 12.3698 4.15625 11.6406H0.640625V8.35938H5.32812C6.10938 7.05729 7.125 5.96354 8.375 5.07812L5.64062 2.34375L7.98438 0L11.6562 3.59375C12.4375 3.4375 13.2188 3.35938 14 3.35938C14.7812 3.35938 15.5625 3.4375 16.3438 3.59375L20.0156 0L22.3594 2.34375L19.625 5.07812C20.9271 5.96354 21.9427 7.05729 22.6719 8.35938H27.3594Z"
          fill="#ff9e8d"/>
</svg>
