<svg width="315" height="80" viewBox="0 0 315 80" fill="none" xmlns="http://www.w3.org/2000/svg">
    <path d="M139.938 10.6191V19.54H124.865V61H114.27V19.54H99.1279V10.6191H139.938ZM160.686 42.8848C160.07 43.2721 159.444 43.5911 158.806 43.8418C158.19 44.0697 157.336 44.2861 156.242 44.4912L154.055 44.9014C152.004 45.266 150.534 45.7103 149.646 46.2344C148.142 47.123 147.39 48.5016 147.39 50.3701C147.39 52.0335 147.845 53.2412 148.757 53.9932C149.691 54.7223 150.819 55.0869 152.141 55.0869C154.237 55.0869 156.162 54.4717 157.917 53.2412C159.694 52.0107 160.617 49.7663 160.686 46.5078V42.8848ZM154.772 38.3389C156.573 38.111 157.86 37.8262 158.635 37.4844C160.025 36.8919 160.72 35.9691 160.72 34.7158C160.72 33.1891 160.184 32.141 159.113 31.5713C158.065 30.9788 156.516 30.6826 154.465 30.6826C152.163 30.6826 150.534 31.2523 149.577 32.3916C148.894 33.2347 148.438 34.374 148.21 35.8096H138.811C139.016 32.5511 139.927 29.8737 141.545 27.7773C144.12 24.4961 148.54 22.8555 154.807 22.8555C158.885 22.8555 162.508 23.6644 165.676 25.2822C168.843 26.9001 170.427 29.9535 170.427 34.4424V51.5322C170.427 52.7171 170.45 54.1527 170.495 55.8389C170.563 57.1149 170.757 57.9808 171.076 58.4365C171.395 58.8923 171.874 59.2682 172.512 59.5645V61H161.916C161.62 60.248 161.415 59.5417 161.301 58.8809C161.187 58.2201 161.096 57.4681 161.027 56.625C159.683 58.0833 158.133 59.3252 156.379 60.3506C154.283 61.5583 151.913 62.1621 149.27 62.1621C145.897 62.1621 143.106 61.2051 140.896 59.291C138.708 57.3542 137.614 54.6198 137.614 51.0879C137.614 46.5078 139.38 43.1924 142.912 41.1416C144.849 40.0251 147.697 39.2275 151.457 38.749L154.772 38.3389ZM199.343 22.8555C199.525 22.8555 199.673 22.8669 199.787 22.8896C199.924 22.8896 200.209 22.901 200.642 22.9238V32.9043C200.026 32.8359 199.479 32.7904 199.001 32.7676C198.522 32.7448 198.135 32.7334 197.839 32.7334C193.92 32.7334 191.288 34.0094 189.943 36.5615C189.191 37.9971 188.815 40.2074 188.815 43.1924V61H179.006V23.7441H188.303V30.2383C189.807 27.7546 191.117 26.057 192.233 25.1455C194.056 23.6188 196.426 22.8555 199.343 22.8555ZM222.38 53.002C224.659 53.002 226.584 52.1475 228.156 50.4385C229.729 48.7067 230.515 45.9609 230.515 42.2012C230.515 38.6693 229.763 35.9805 228.259 34.1348C226.778 32.2891 224.784 31.3662 222.277 31.3662C218.859 31.3662 216.501 32.9727 215.202 36.1855C214.519 37.8945 214.177 40.0023 214.177 42.5088C214.177 44.6735 214.541 46.599 215.271 48.2852C216.592 51.4297 218.962 53.002 222.38 53.002ZM219.953 22.8555C221.822 22.8555 223.451 23.1403 224.841 23.71C227.211 24.6898 229.125 26.4899 230.583 29.1104V23.7441H240.051V59.0859C240.051 63.8939 239.242 67.5169 237.624 69.9551C234.844 74.1478 229.512 76.2441 221.628 76.2441C216.866 76.2441 212.98 75.3099 209.973 73.4414C206.965 71.5729 205.301 68.7816 204.982 65.0674H215.578C215.852 66.2067 216.296 67.027 216.911 67.5283C217.959 68.417 219.725 68.8613 222.209 68.8613C225.718 68.8613 228.065 67.6878 229.25 65.3408C230.025 63.8369 230.412 61.3076 230.412 57.7529V55.3604C229.478 56.9554 228.475 58.1517 227.404 58.9492C225.467 60.4303 222.95 61.1709 219.851 61.1709C215.065 61.1709 211.237 59.4961 208.366 56.1465C205.518 52.7741 204.094 48.2168 204.094 42.4746C204.094 36.9375 205.472 32.2891 208.229 28.5293C210.987 24.7467 214.895 22.8555 219.953 22.8555ZM263.874 30.7852C261.618 30.7852 259.864 31.4915 258.61 32.9043C257.38 34.3171 256.605 36.2311 256.286 38.6465H271.428C271.268 36.0716 270.482 34.1234 269.069 32.8018C267.679 31.4574 265.948 30.7852 263.874 30.7852ZM263.874 22.7529C266.973 22.7529 269.764 23.334 272.248 24.4961C274.732 25.6582 276.783 27.4925 278.4 29.999C279.859 32.2093 280.804 34.7728 281.237 37.6895C281.488 39.3984 281.59 41.8594 281.545 45.0723H256.047C256.184 48.8092 257.357 51.4297 259.567 52.9336C260.912 53.8678 262.53 54.335 264.421 54.335C266.426 54.335 268.055 53.7653 269.309 52.626C269.992 52.0107 270.596 51.1562 271.12 50.0625H281.066C280.816 52.2728 279.665 54.5173 277.614 56.7959C274.424 60.4189 269.958 62.2305 264.216 62.2305C259.476 62.2305 255.295 60.7038 251.672 57.6504C248.049 54.597 246.237 49.6296 246.237 42.748C246.237 36.2995 247.867 31.3548 251.125 27.9141C254.406 24.4733 258.656 22.7529 263.874 22.7529ZM284.313 31.0244V24.0859H289.509V13.6953H299.147V24.0859H305.197V31.0244H299.147V50.7119C299.147 52.2386 299.341 53.1956 299.729 53.583C300.116 53.9476 301.301 54.1299 303.283 54.1299C303.579 54.1299 303.887 54.1299 304.206 54.1299C304.548 54.1071 304.878 54.0843 305.197 54.0615V61.3418L300.583 61.5127C295.98 61.6722 292.836 60.8747 291.149 59.1201C290.056 58.0036 289.509 56.2832 289.509 53.959V31.0244H284.313Z"
          fill="#ffc96a"/>
    <mask id="mask0_3831_12" style="mask-type:luminance" maskUnits="userSpaceOnUse" x="0" y="0"
          width="80" height="80">
        <path d="M80 0H0V80H80V0Z" fill="white"/>
    </mask>
    <g mask="url(#mask0_3831_12)">
        <path d="M69.9867 38.4021C69.1877 23.1158 56.8843 10.8122 41.5979 10.0133C40.7456 9.96005 40.0533 9.26765 40.0533 8.41544L40 1.06525C40 0.47936 39.4941 0 38.9083 0C28.6285 0.266311 19.0147 4.39413 11.7177 11.7177C4.4208 19.0413 0.266332 28.6285 2.05262e-05 38.908C-0.0266106 39.4941 0.452751 40 1.06527 40L8.41547 40.0533C9.26766 40.0533 9.96008 40.7189 10.0133 41.5979C10.8123 56.8843 23.1159 69.1877 38.4021 69.9867C39.2544 70.04 39.9467 70.7323 39.9467 71.5845L40 78.9347C40 79.5205 40.5061 80 41.092 80C51.3715 79.7336 60.9853 75.6059 68.2824 68.2824C75.5792 60.9853 79.7072 51.3715 80 41.092C80.0267 40.5059 79.5472 40 78.9347 40L71.5845 39.9467C70.7323 39.92 70.04 39.2544 69.9867 38.4021ZM30.1197 39.0413C30.5725 34.3275 34.3275 30.5725 39.0413 30.1197C39.5739 30.0667 40 29.6139 40 29.0813L40.0533 21.7843C40.0533 20.8522 40.8523 20.1065 41.7843 20.1864C51.3448 21.0386 58.9613 28.6819 59.8136 38.2157C59.8936 39.1477 59.1477 39.9467 58.2157 39.9467L50.9187 40C50.3861 40 49.9333 40.4261 49.8803 40.9587C49.4275 45.6725 45.6725 49.4275 40.9587 49.8803C40.4261 49.9333 40 50.3861 40 50.9187L39.9467 58.2157C39.9467 59.1477 39.1477 59.8936 38.2157 59.8136C28.6552 58.9613 21.0386 51.3181 20.1864 41.7843C20.1065 40.8523 20.8522 40.0533 21.7843 40.0533L29.0813 40C29.6139 40 30.0667 39.6005 30.1197 39.0413ZM41.5445 59.9733C51.3715 59.2277 59.2277 51.3715 59.9733 41.5445C60.0267 40.7189 60.7189 40.08 61.5712 40.08H68.2557C69.1877 40.08 69.9069 40.8523 69.8536 41.7843C68.9747 56.8576 56.8576 68.9747 41.7843 69.8536C40.8523 69.9067 40.08 69.1877 40.08 68.2557V61.5712C40.0533 60.7456 40.7189 60.0533 41.5445 59.9733ZM39.92 11.7443V18.4288C39.92 19.2543 39.2811 19.9467 38.4555 20.0266C28.6285 20.7723 20.7723 28.6285 20.0266 38.4555C19.9734 39.2811 19.281 39.92 18.4288 39.92H11.7444C10.8123 39.92 10.0932 39.1477 10.1465 38.2157C11.052 23.1425 23.1425 11.0519 38.2424 10.1465C39.1477 10.0932 39.92 10.8389 39.92 11.7443Z"
              fill="#ffc96a"/>
    </g>
</svg>
