<svg width="30" height="31" viewBox="0 0 30 31" fill="none" xmlns="http://www.w3.org/2000/svg">
    <path d="M22.0312 15.2188L24.6875 12.5625L18.4375 6.3125L15.7812 8.96875L8.90625 2.01562C8.28125 1.39062 7.5 1.07812 6.5625 1.07812C5.625 1.07812 4.84375 1.39062 4.21875 2.01562L1.01562 5.21875C0.390625 5.84375 0.078125 6.625 0.078125 7.5625C0.078125 8.5 0.390625 9.28125 1.01562 9.90625L7.89062 16.7812L0 24.75V31H6.25L14.2188 23.0312L21.0938 29.9844C21.6146 30.5052 22.1615 30.8177 22.7344 30.9219C23.3594 30.974 23.9323 30.9219 24.4531 30.7656C25.026 30.5573 25.4688 30.2969 25.7812 29.9844L28.9844 26.7812C29.6094 26.1562 29.9219 25.375 29.9219 24.4375C29.9219 23.5 29.6094 22.7188 28.9844 22.0938L22.0312 15.2188ZM10.3125 14.4375L3.4375 7.5625L6.5625 4.4375L8.67188 6.54688L6.71875 8.5L9.0625 10.8438L11.0156 8.89062L13.4375 11.3125L10.3125 14.4375ZM23.4375 27.5625L16.5625 20.6875L19.6875 17.5625L22.1094 19.9844L20.1562 21.9375L22.5 24.2812L24.4531 22.3281L26.5625 24.4375L23.4375 27.5625ZM29.5312 7.71875C29.8438 7.40625 30 7.01562 30 6.54688C30 6.07812 29.8438 5.6875 29.5312 5.375L25.625 1.46875C25.2083 1.10417 24.7656 0.973958 24.2969 1.07812C23.8281 1.13021 23.4896 1.26042 23.2812 1.46875L20.2344 4.51562L26.4844 10.7656L29.5312 7.71875Z"
          fill="#ff9e8d"/>
</svg>
