<svg width="34" height="24" viewBox="0 0 34 24" fill="none" xmlns="http://www.w3.org/2000/svg">
    <path d="M28.6406 8.64062V5.35938H25.3594V8.64062H28.6406ZM28.6406 13.6406V10.3594H25.3594V13.6406H28.6406ZM23.6406 8.64062V5.35938H20.3594V8.64062H23.6406ZM23.6406 13.6406V10.3594H20.3594V13.6406H23.6406ZM23.6406 20.3594V17H10.3594V20.3594H23.6406ZM8.64062 8.64062V5.35938H5.35938V8.64062H8.64062ZM8.64062 13.6406V10.3594H5.35938V13.6406H8.64062ZM10.3594 10.3594V13.6406H13.6406V10.3594H10.3594ZM10.3594 5.35938V8.64062H13.6406V5.35938H10.3594ZM15.3594 10.3594V13.6406H18.6406V10.3594H15.3594ZM15.3594 5.35938V8.64062H18.6406V5.35938H15.3594ZM30.3594 0.359375C31.2448 0.359375 32 0.697917 32.625 1.375C33.3021 2 33.6406 2.75521 33.6406 3.64062V20.3594C33.6406 21.2448 33.3021 22.026 32.625 22.7031C32 23.3281 31.2448 23.6406 30.3594 23.6406H3.64062C2.75521 23.6406 1.97396 23.3281 1.29688 22.7031C0.671875 22.026 0.359375 21.2448 0.359375 20.3594V3.64062C0.359375 2.75521 0.671875 2 1.29688 1.375C1.97396 0.697917 2.75521 0.359375 3.64062 0.359375H30.3594Z"
          fill="#ff9e8d"/>
</svg>
